<?xml version="1.0" encoding="utf-8"?>
<!-- Uploaded to: SVG Repo, www.svgrepo.com, Generator: SVG Repo Mixer Tools -->
<svg width="800px" height="800px" viewBox="0 0 32 32" fill="none" xmlns="http://www.w3.org/2000/svg">
<g clip-path="url(#clip0_901_2823)">
<path d="M19.06 16.06C19.06 14.4 17.72 13.06 16.06 13.06C14.4 13.06 13.06 14.4 13.06 16.06C13.06 17.72 14.4 19.06 16.06 19.06C17.72 19.06 19.06 17.72 19.06 16.06ZM29.06 14C30.2 14.01 31.12 14.93 31.12 16.06C31.12 17.2 30.2 18.12 29.06 18.12C28.9 18.12 28.75 18.06 28.6 18.06H27.88C27.57 20.06 26.86 21.56 25.83 23.01L26.34 23.51C26.47 23.59 26.59 23.69 26.71 23.8C27.51 24.6 27.51 25.9 26.71 26.71C25.9 27.51 24.6 27.51 23.8 26.71C23.69 26.6 23.59 26.47 23.51 26.34L23.01 25.83C21.56 26.86 19.88 27.57 18.06 27.88V28.6C18.09 28.75 18.12 28.9 18.12 29.06C18.11 30.2 17.2 31.12 16.06 31.12C14.92 31.12 14 30.2 14 29.06C14 28.9 14.02 28.75 14.06 28.6V27.88C12.24 27.57 10.56 26.86 9.11 25.83L8.61 26.34C8.53 26.47 8.43 26.59 8.32 26.71C7.52 27.51 6.22 27.51 5.41 26.71C4.61 25.9 4.61 24.6 5.41 23.8C5.53 23.69 5.65 23.59 5.78 23.51L6.29 23.01C5.26 21.56 4.55 19.88 4.24 18.06H3.52C3.37 18.09 3.22 18.12 3.06 18.12C1.92 18.12 1 17.2 1 16.06C1 14.92 1.92 14 3.06 14C3.22 14 3.37 14.03 3.52 14.06H4.24C4.55 12.24 5.26 10.56 6.29 9.11L5.78 8.61C5.65 8.53 5.53 8.43 5.41 8.32C4.61 7.52 4.61 6.22 5.41 5.41C6.22 4.61 7.52 4.61 8.32 5.41C8.43 5.52 8.53 5.65 8.61 5.78L9.11 6.29C10.56 5.26 12.24 4.55 14.06 4.24V3.52C14.03 3.38 14.01 3.22 14 3.06C14.01 1.92 14.93 1 16.06 1C17.2 1 18.12 1.92 18.12 3.06C18.12 3.22 18.06 3.38 18.06 3.52V4.24C20.06 4.55 21.56 5.26 23.01 6.29L23.51 5.78C23.59 5.65 23.69 5.53 23.8 5.41C24.6 4.61 25.9 4.61 26.71 5.41C27.51 6.22 27.51 7.52 26.71 8.32C26.59 8.43 26.47 8.53 26.34 8.61L25.83 9.12C26.86 10.56 27.57 12.24 27.88 14.06H28.6C28.75 14.03 28.9 14 29.06 14Z" fill="#FFC44D"/>
<path fill-rule="evenodd" clip-rule="evenodd" d="M29.0559 14C28.8979 14.001 28.7419 14.023 28.5949 14.057H27.8759C27.5699 12.236 26.8589 10.557 25.8299 9.112L26.3389 8.604C26.4639 8.525 26.5899 8.431 26.7019 8.318C27.5069 7.516 27.5069 6.215 26.7019 5.41C25.8999 4.607 24.5989 4.607 23.7939 5.41C23.6829 5.523 23.5879 5.649 23.5079 5.776L23.0009 6.283C21.5559 5.255 20.0559 4.543 18.0559 4.236V3.516C18.0559 3.372 18.1129 3.215 18.1129 3.057C18.1129 1.92 17.1949 1 16.0559 1C14.9209 1 14.0009 1.92 13.9989 3.057C14.0009 3.215 14.0229 3.372 14.0559 3.519V4.236C12.2349 4.543 10.5549 5.254 9.11088 6.282L8.60288 5.774C8.52488 5.649 8.42888 5.521 8.31788 5.41C7.51488 4.605 6.21388 4.605 5.40988 5.41C4.60688 6.213 4.60688 7.514 5.40988 8.318C5.52288 8.43 5.64888 8.525 5.77588 8.605L6.28188 9.111C5.25288 10.556 4.54188 12.235 4.23588 14.057H3.51488C3.36788 14.022 3.21388 14.001 3.05588 14.001C1.91988 14.001 0.999878 14.921 0.999878 16.057C0.999878 17.192 1.91988 18.112 3.05588 18.112C3.21388 18.112 3.36788 18.091 3.51488 18.057H4.23588C4.54188 19.878 5.25388 21.558 6.28288 23.002L5.77388 23.511C5.64588 23.59 5.52188 23.684 5.40988 23.795C4.60688 24.599 4.60688 25.899 5.40988 26.703C6.21288 27.506 7.51388 27.506 8.31788 26.703C8.42888 26.591 8.52288 26.467 8.60188 26.339L9.11088 25.83C10.5549 26.858 12.2349 27.57 14.0559 27.877V28.599C14.0209 28.744 13.9989 28.898 13.9989 29.057C13.9989 30.193 14.9189 31.113 16.0559 31.113C17.1919 31.112 18.1109 30.193 18.1129 29.057C18.1119 28.898 18.0889 28.744 18.0559 28.598V27.877C19.8769 27.57 21.5569 26.859 23.0009 25.831L23.5099 26.34C23.5869 26.467 23.6819 26.592 23.7939 26.703C24.5969 27.508 25.8979 27.508 26.7019 26.703C27.5049 25.9 27.5049 24.6 26.7019 23.795C26.5899 23.684 26.4639 23.59 26.3369 23.51L25.8289 23.002C26.8579 21.557 27.5699 20.057 27.8759 18.057H28.5979C28.7419 18.057 28.8979 18.113 29.0559 18.113C30.1929 18.115 31.1129 17.195 31.1129 16.057C31.1129 14.922 30.1929 14.002 29.0559 14Z" stroke="#000000" stroke-width="2" stroke-linecap="round" stroke-linejoin="round"/>
<path fill-rule="evenodd" clip-rule="evenodd" d="M19.0559 16.0567C19.0559 14.3997 17.7129 13.0567 16.0559 13.0567C14.3989 13.0567 13.0559 14.3997 13.0559 16.0567C13.0559 17.7137 14.3989 19.0567 16.0559 19.0567C17.7129 19.0567 19.0559 17.7137 19.0559 16.0567Z" stroke="#000000" stroke-width="2" stroke-linecap="round" stroke-linejoin="round"/>
</g>
<defs>
<clipPath id="clip0_901_2823">
<rect width="32" height="32" fill="white"/>
</clipPath>
</defs>
</svg>