<?xml version="1.0" encoding="utf-8"?>
<!-- Generator: Adobe Illustrator 27.5.0, SVG Export Plug-In . SVG Version: 6.00 Build 0)  -->
<svg version="1.1" xmlns="http://www.w3.org/2000/svg" xmlns:xlink="http://www.w3.org/1999/xlink" x="0px" y="0px"
	 viewBox="0 0 500 500" style="enable-background:new 0 0 500 500;" xml:space="preserve">
<g id="BACKGROUND">
	<rect id="XMLID_1_" style="fill:#FFFFFF;" width="500" height="500"/>
</g>
<g id="OBJECTS">
	<g>
		<g>
			<path style="fill:#E5E5E5;" d="M313.15,141.998h-8.333c-13.267,0-24.021-10.755-24.021-24.021v-13.789h56.376v13.789
				C337.171,131.244,326.417,141.998,313.15,141.998z"/>
			<g>
				<g>
					
						<ellipse transform="matrix(0.1631 -0.9866 0.9866 0.1631 155.7978 392.0417)" style="fill:#FFFFFF;" cx="308.983" cy="104.188" rx="26.508" ry="26.508"/>
				</g>
				<g>
					<path style="fill:#E0E0E0;" d="M308.983,82.349c13.853,0,25.216,10.628,26.399,24.173c0.067-0.77,0.108-1.547,0.108-2.334
						c0-14.64-11.868-26.508-26.508-26.508c-14.64,0-26.508,11.868-26.508,26.508c0,0.787,0.041,1.565,0.108,2.334
						C283.767,92.976,295.131,82.349,308.983,82.349z"/>
				</g>
				<g>
					<path style="fill:#46ADB5;" d="M308.983,132.375c-15.543,0-28.188-12.645-28.188-28.188C280.796,88.645,293.44,76,308.983,76
						c15.543,0,28.188,12.645,28.188,28.188C337.171,119.73,324.526,132.375,308.983,132.375z M308.983,79.36
						c-13.69,0-24.827,11.137-24.827,24.827c0,13.69,11.138,24.827,24.827,24.827c13.69,0,24.828-11.137,24.828-24.827
						C333.811,90.498,322.674,79.36,308.983,79.36z"/>
				</g>
				<g>
					<g>
						<path style="fill:#E83C1A;" d="M320.166,95.175l-9.535,9.536c-0.397,0.397-1.042,0.397-1.439,0l0,0
							c-0.397-0.398-0.397-1.042,0-1.439l9.535-9.535c0.397-0.398,1.042-0.398,1.439,0l0,0
							C320.563,94.133,320.563,94.777,320.166,95.175z"/>
					</g>
					<g>
						<path style="fill:#E83C1A;" d="M295.472,89.552l13.718,13.719c0.397,0.397,0.397,1.042,0,1.439l0,0
							c-0.397,0.397-1.042,0.397-1.439,0l-13.719-13.719c-0.397-0.397-0.397-1.042,0-1.439l0,0
							C294.43,89.155,295.075,89.155,295.472,89.552z"/>
					</g>
				</g>
				<g>
					<circle style="fill:#E83C1A;" cx="308.983" cy="104.188" r="2.684"/>
				</g>
				<g>
					<circle style="fill:#FFFFFF;" cx="308.983" cy="104.188" r="1.576"/>
				</g>
			</g>
		</g>
		<g>
			<rect x="134.726" y="138.536" style="fill:#E5E5E5;" width="101.471" height="30.459"/>
			
				<rect id="XMLID_519_" x="134.726" y="133.702" transform="matrix(-1 -1.224647e-16 1.224647e-16 -1 370.9622 277.0721)" style="fill:#46ADB5;" width="101.51" height="9.667"/>
			
				<rect id="XMLID_516_" x="134.726" y="141.258" transform="matrix(-1 -1.224647e-16 1.224647e-16 -1 370.9622 284.6271)" style="fill:#349799;" width="101.51" height="2.112"/>
			<g id="XMLID_400_">
				<path id="XMLID_474_" style="fill:#64B5E5;" d="M222.833,133.702h-33.914c-1.97,0-3.567-1.597-3.567-3.567v-35.34
					c0-1.97,1.597-3.567,3.567-3.567h33.914V133.702z"/>
				<rect id="XMLID_401_" x="209.637" y="91.228" style="fill:#3A9BC5;" width="13.195" height="42.474"/>
				<rect id="XMLID_404_" x="212.301" y="91.228" style="fill:#FFFFFF;" width="8.64" height="42.474"/>
			</g>
			<g id="XMLID_252_">
				<path id="XMLID_387_" style="fill:#9068AB;" d="M201.498,133.702h-33.914c-1.97,0-3.567-1.597-3.567-3.567v-35.34
					c0-1.97,1.597-3.567,3.567-3.567h33.914V133.702z"/>
				<rect id="XMLID_368_" x="188.303" y="91.228" style="fill:#784E9E;" width="13.195" height="42.474"/>
				<rect id="XMLID_253_" x="190.967" y="91.228" style="fill:#FFFFFF;" width="8.64" height="42.474"/>
			</g>
			<g id="XMLID_394_">
				<path id="XMLID_473_" style="fill:#E83C1A;" d="M180.035,133.702h-27.317c-1.97,0-3.567-1.597-3.567-3.567v-35.34
					c0-1.97,1.597-3.567,3.567-3.567h27.317V133.702z"/>
				<rect id="XMLID_399_" x="169.162" y="91.228" style="fill:#AB1B0E;" width="10.872" height="42.474"/>
				<rect id="XMLID_397_" x="171.357" y="91.228" style="fill:#FFFFFF;" width="7.119" height="42.474"/>
			</g>
		</g>
		<g>
			<path id="XMLID_520_" style="fill:#FFFFFF;" d="M318.161,261.177H172.171c-3.868,0-7.004-3.136-7.004-7.004v-86.059
				c0-3.868,3.136-7.004,7.004-7.004h145.989c3.868,0,7.004,3.136,7.004,7.004v86.059
				C325.164,258.041,322.029,261.177,318.161,261.177z"/>
			<polygon style="fill:#C5E9FF;" points="165.168,232.263 165.168,250.499 254.557,161.111 236.321,161.111 			"/>
			<path style="fill:#C5E9FF;" d="M293.434,261.177h23.886c4.332,0,7.845-3.512,7.845-7.844v-23.886
				C314.587,240.023,304.011,250.6,293.434,261.177z"/>
			<path style="fill:#C5E9FF;" d="M325.164,175.626v-6.671c0-4.332-3.512-7.844-7.845-7.844h-8.943
				c-33.355,33.355-66.711,66.711-100.066,100.066h31.303L325.164,175.626z"/>
			<g id="XMLID_327_">
				<path style="fill:#868689;" d="M317.32,264.537H173.012c-6.178,0-11.205-5.026-11.205-11.204v-84.378
					c0-6.178,5.027-11.204,11.205-11.204H317.32c6.178,0,11.204,5.026,11.204,11.204v84.378
					C328.524,259.511,323.498,264.537,317.32,264.537z M173.012,164.471c-2.473,0-4.484,2.012-4.484,4.484v69.414
					c0,2.472,2.011,4.484,4.484,4.484H317.32c2.472,0,4.484-2.012,4.484-4.484v-69.414c0-2.473-2.012-4.484-4.484-4.484H173.012z"/>
			</g>
			<g>
				<path style="fill:#6D6D6D;" d="M317.32,162.826H173.012c-2.473,0-4.484,2.012-4.484,4.484v1.645
					c0-2.473,2.011-4.484,4.484-4.484H317.32c2.472,0,4.484,2.012,4.484,4.484v-1.645
					C321.804,164.837,319.792,162.826,317.32,162.826z"/>
				<path style="fill:#6D6D6D;" d="M317.32,262.892H173.012c-6.178,0-11.205-5.026-11.205-11.204v1.645
					c0,6.178,5.027,11.204,11.205,11.204H317.32c6.178,0,11.204-5.026,11.204-11.204v-1.645
					C328.524,257.866,323.498,262.892,317.32,262.892z"/>
			</g>
			<path style="fill:#E5E5E5;" d="M371.975,418.824c0,2.859-56.994,5.176-127.3,5.176s-127.3-2.317-127.3-5.176
				c0-2.858,56.994-5.176,127.3-5.176S371.975,415.966,371.975,418.824z"/>
			
				<rect id="XMLID_218_" x="142.878" y="299.797" transform="matrix(-1 -1.224647e-16 1.224647e-16 -1 294.4402 718.7375)" style="fill:#46ADB5;" width="8.683" height="119.143"/>
			
				<rect id="XMLID_46_" x="334.934" y="299.797" transform="matrix(-1 -1.224647e-16 1.224647e-16 -1 678.5509 718.7375)" style="fill:#46ADB5;" width="8.683" height="119.143"/>
			
				<rect id="XMLID_251_" x="142.878" y="299.797" transform="matrix(-1 -1.224647e-16 1.224647e-16 -1 294.4399 619.786)" style="fill:#349799;" width="8.683" height="20.191"/>
			
				<rect id="XMLID_195_" x="334.934" y="299.797" transform="matrix(-1 -1.224647e-16 1.224647e-16 -1 678.5507 619.786)" style="fill:#349799;" width="8.683" height="20.191"/>
			
				<rect id="XMLID_206_" x="124.983" y="295.614" transform="matrix(-1 -1.224647e-16 1.224647e-16 -1 489.3492 600.8959)" style="fill:#46ADB5;" width="239.383" height="9.667"/>
			
				<rect id="XMLID_514_" x="124.983" y="303.169" transform="matrix(-1 -1.224647e-16 1.224647e-16 -1 489.3492 608.4509)" style="fill:#349799;" width="239.383" height="2.112"/>
			
				<rect id="XMLID_42_" x="171.022" y="287.982" transform="matrix(-1 -1.224647e-16 1.224647e-16 -1 408.0314 583.5965)" style="fill:#C5C4D7;" width="65.986" height="7.632"/>
			
				<rect id="XMLID_270_" x="177.722" y="287.982" transform="matrix(-1 -1.224647e-16 1.224647e-16 -1 421.4306 583.5965)" style="fill:#A5A5AD;" width="65.986" height="7.632"/>
			<path id="XMLID_324_" style="fill:#A5A5AD;" d="M311.919,287.982h1.37c4.215,0,7.632,3.417,7.632,7.632l0,0h-16.635l0,0
				C304.287,291.399,307.704,287.982,311.919,287.982z"/>
			<path style="fill:#666666;" d="M243.701,312.492h35.408c0.573,0,1.175,0.033,1.797,0.098c12.044,1.25,20.044,13.135,17.23,24.912
				l-14.488,67.445h-20.822l9.995-63.969h-29.12V312.492z"/>
			<path style="fill:#7C230E;" d="M262.825,404.947h17.38c0,0,18.495,1.749,18.495,13.993h-35.875V404.947z"/>
			<path style="fill:#666666;" d="M245.716,312.492h-35.407c-0.573,0-1.175,0.033-1.797,0.098
				c-12.044,1.25-20.044,13.135-17.23,24.912l14.488,67.445h20.822l-9.995-63.969h29.12V312.492z"/>
			<path style="fill:#4D5056;" d="M275.053,404.947c0.07-0.23,0.139-0.457,0.209-0.687c2.411-7.941,4.685-26.936,6.939-34.924
				c2.411-8.545,4.66-17.149,6.322-25.875c0.341-1.79,0.631-3.588,0.945-5.382c0.118-0.806,0.198-1.34,0.241-1.612
				c0.111-0.934,0.22-1.869,0.311-2.806c0.022-0.226,0.036-0.452,0.056-0.678h-46.375v7.996h29.12l-9.995,63.969H275.053z"/>
			<path style="fill:#4D5056;" d="M245.716,332.982h-44.545c0.21,0.91,0.429,1.818,0.66,2.725c1.959,7.703,4.478,15.25,6.992,22.785
				c2.45,7.344,5.016,14.689,6.903,22.203c1.108,4.411,1.953,19.862,3.06,24.252h7.805l-9.995-63.969h29.12V332.982z"/>
			<g id="XMLID_534_">
				<g id="XMLID_535_">
					<g id="XMLID_537_">
						<g id="XMLID_570_">
							<path id="XMLID_573_" style="fill:#EDAC7C;" d="M224.248,194.423c0,0-4.434-6.996-9.51-3.175
								c-5.078,3.821,0.305,17.64,9.535,15.41L224.248,194.423z"/>
							<path id="XMLID_572_" style="fill:#F7A588;" d="M224.257,199.06l0.014,6.299c-7.858,0.636-11.22-10.546-7.523-11.692
								C219.739,192.74,222.937,196.859,224.257,199.06z"/>
							<path id="XMLID_571_" style="fill:#CF9166;" d="M215.288,195.772c0,0,0.02-0.046,0.051-0.134
								c0.033-0.088,0.088-0.21,0.154-0.363c0.145-0.297,0.387-0.726,0.797-1.01c0.102-0.072,0.219-0.125,0.337-0.169
								c0.062-0.02,0.122-0.041,0.19-0.056l0.046-0.012l0.002-0.001c-0.035,0.01-0.007,0.003-0.014,0.005l0.006-0.002l0.018-0.002
								l0.029-0.005l0.125-0.02c0.091-0.019,0.158-0.021,0.225-0.025c0.065-0.005,0.137-0.007,0.219-0.004
								c0.075,0.001,0.152,0.003,0.227,0.014c0.08,0.007,0.158,0.011,0.237,0.03c0.629,0.106,1.276,0.419,1.883,0.824
								c0.309,0.198,0.599,0.429,0.885,0.661c0.281,0.236,0.557,0.478,0.817,0.721c0.52,0.489,0.988,0.975,1.393,1.395
								c0.805,0.865,1.341,1.441,1.341,1.441s-0.058-0.191-0.192-0.513c-0.138-0.321-0.349-0.773-0.653-1.287
								c-0.155-0.256-0.324-0.535-0.526-0.814c-0.2-0.281-0.424-0.572-0.672-0.859c-0.5-0.573-1.093-1.148-1.795-1.616
								c-0.354-0.231-0.729-0.439-1.13-0.594c-0.4-0.156-0.827-0.259-1.25-0.284c-0.105-0.009-0.21-0.009-0.317-0.006
								c-0.103-0.003-0.206,0.01-0.308,0.023c-0.099,0.009-0.203,0.028-0.309,0.053c-0.106,0.023-0.207,0.046-0.278,0.076
								l-0.123,0.043l-0.075,0.026l-0.07,0.03c-0.092,0.036-0.177,0.083-0.259,0.133c-0.16,0.104-0.303,0.22-0.418,0.347
								c-0.239,0.249-0.372,0.527-0.457,0.769c-0.088,0.241-0.117,0.46-0.135,0.635c-0.018,0.175-0.012,0.316-0.009,0.409
								C215.285,195.724,215.288,195.772,215.288,195.772z"/>
						</g>
						<g id="XMLID_566_">
							<path id="XMLID_569_" style="fill:#EDAC7C;" d="M271.255,198.481c0,0,5.565-6.131,9.912-1.496
								c4.35,4.633-3.324,17.325-12.036,13.547L271.255,198.481z"/>
							<path id="XMLID_568_" style="fill:#F7A588;" d="M270.451,203.049l-1.092,6.202c7.63,1.975,12.859-8.465,9.413-10.228
								C275.986,197.598,272.127,201.107,270.451,203.049z"/>
							<path id="XMLID_567_" style="fill:#CF9166;" d="M279.849,201.348c0,0-0.009-0.048-0.028-0.139
								c-0.017-0.093-0.048-0.222-0.089-0.385c-0.089-0.319-0.255-0.783-0.613-1.133c-0.086-0.087-0.189-0.159-0.303-0.224
								c-0.058-0.028-0.112-0.063-0.173-0.085l-0.048-0.02l-0.002-0.001c0.035,0.016,0.007,0.002,0.013,0.005l-0.006-0.001
								l-0.015-0.006l-0.029-0.011l-0.121-0.042c-0.084-0.034-0.152-0.047-0.217-0.062c-0.063-0.019-0.134-0.032-0.214-0.042
								c-0.075-0.012-0.15-0.021-0.227-0.026c-0.077-0.007-0.155-0.013-0.236-0.01c-0.638-0.006-1.331,0.192-1.998,0.487
								c-0.336,0.144-0.663,0.32-0.985,0.502c-0.317,0.184-0.63,0.374-0.929,0.571c-0.596,0.392-1.14,0.79-1.612,1.133
								c-0.941,0.714-1.567,1.19-1.567,1.19s0.091-0.179,0.28-0.472c0.186-0.291,0.474-0.703,0.864-1.157
								c0.195-0.225,0.41-0.47,0.657-0.711c0.246-0.243,0.513-0.49,0.808-0.732c0.589-0.478,1.272-0.943,2.044-1.285
								c0.386-0.166,0.796-0.306,1.217-0.39c0.421-0.085,0.857-0.114,1.278-0.066c0.107,0.009,0.21,0.029,0.313,0.05
								c0.104,0.015,0.202,0.043,0.302,0.075c0.095,0.025,0.193,0.061,0.294,0.105c0.1,0.04,0.195,0.08,0.262,0.124l0.111,0.06
								l0.07,0.04l0.064,0.042c0.084,0.052,0.162,0.114,0.235,0.177c0.138,0.129,0.258,0.267,0.353,0.412
								c0.191,0.287,0.274,0.584,0.316,0.835c0.045,0.254,0.036,0.474,0.024,0.651c-0.013,0.177-0.043,0.313-0.061,0.404
								C279.861,201.299,279.849,201.348,279.849,201.348z"/>
						</g>
						<path id="XMLID_565_" style="fill:#EDAC7C;" d="M240.392,216.184l12.726,1.097c0,0-1.231,19.969-1.183,19.973
							c0,0-1.278,3.893-6.931,3.495c-5.655-0.401-6.689-4.671-6.689-4.671C238.371,235.972,240.392,216.184,240.392,216.184z"/>
						<path id="XMLID_564_" style="fill:#CF9166;" d="M239.76,223.512l12.726,1.097c0,0-0.177,7.757-0.13,7.76
							c0,0-1.278,3.893-6.931,3.494c-5.655-0.401-6.689-4.671-6.689-4.671C238.792,231.087,239.76,223.512,239.76,223.512z"/>
						<path id="XMLID_563_" style="fill:#CF9166;" d="M240.076,219.848l12.726,1.097c0,0-0.059,2.559-0.099,4.738
							c-0.004,0.316-3.709,0.553-4.111,0.581c-3.158,0.225-6.191-0.44-9.156-1.473C239.727,222.584,240.076,219.848,240.076,219.848
							z"/>
						<path id="XMLID_561_" style="fill:#EDAC7C;" d="M221.572,188.506c1.07-8.815,5.593-16.834,14.625-19.511
							c4.593-1.363,9.512-1.406,14.259-0.919c4.689,0.481,9.665,1.218,13.932,3.301c7.644,3.733,6.142,7.726,6.249,15.869
							c0.012,0.799,4.985,5.127,4.943,5.923c-0.093,1.827-0.108,3.633-0.333,5.455c-0.507,4.097-1.517,8.162-3.195,11.949
							c-2.035,4.595-5.128,8.753-9.354,11.62c-2.399,1.63-5.102,2.802-7.922,3.532c-4.656,1.201-9.005,1.356-13.655,0.078
							c-3.151-0.865-6.184-2.182-8.856-4.046c-4.433-3.091-7.567-7.569-9.332-12.587c-1.482-4.223-2.055-8.727-2.025-13.177
							c0.016-2.437,0.182-4.9,0.627-7.296C221.548,188.633,221.564,188.57,221.572,188.506z"/>
						<g id="XMLID_538_">
							<path id="XMLID_539_" style="fill:#CF9166;" d="M221.089,188.749c0,0-0.144-3.454,0.269-7.873
								C221,185.378,221.089,188.749,221.089,188.749z"/>
						</g>
						<path id="XMLID_574_" style="fill:#3E150D;" d="M232.702,168.023c8.009-12.022,44.271-13.029,46.983,27.474
							c1.978,29.517-31.371,33.189-47.419,26.259C204.962,209.967,224.69,180.043,232.702,168.023z"/>
					</g>
					<path id="XMLID_536_" style="fill:#361710;" d="M220.698,200.926c0,0-3.798-1.158-5.96-9.678
						c-1.477-5.822,0.213-18.082,7.387-23.979c4.21-3.461,5.38-1.848,5.38-1.848s2.776-13.56,11.112-11.134
						c34.687,10.095,32.655-0.633,43.637,8.894c11.154,9.675-6.673,29.989-33.98,21.05c-11.029-3.61-18.035-5.409-18.035-5.409
						s0.091,3.574-2.119,8.643c-2.209,5.069-7.505,10.574-7.505,10.574"/>
				</g>
			</g>
			<path style="fill:#A7A6BB;" d="M294.767,278.885l-15.237-34.696c-2.183-4.971-8.042-8.296-14.617-8.296h-18.19h-2.014H226.52
				c-6.575,0-12.435,3.325-14.617,8.296l-15.237,34.696c-3.544,8.069,3.927,16.524,14.602,16.524h33.442h2.014h33.442
				C290.84,295.409,298.311,286.955,294.767,278.885z"/>
			<path style="fill:#AB1B0E;" d="M269.981,331.733h-47.723c-7.778,0-14.084-6.306-14.084-14.084v-61.538
				c0-7.778,6.306-14.084,14.084-14.084h47.723c7.778,0,14.084,6.305,14.084,14.084v61.538
				C284.064,325.427,277.759,331.733,269.981,331.733z"/>
			<path style="fill:#E83C1A;" d="M266.281,326.236h-40.324c-7.778,0-14.084-6.306-14.084-14.084V257.61
				c0-7.778,6.305-14.084,14.084-14.084h40.325c7.778,0,14.084,6.305,14.084,14.084v54.542
				C280.365,319.93,274.06,326.236,266.281,326.236z"/>
			<rect x="231.756" y="230.865" style="fill:#A7A6BB;" width="26.82" height="6.83"/>
			<ellipse style="fill:#E83C1A;" cx="244.628" cy="343.602" rx="44.433" ry="10.439"/>
			<path style="fill:#AB1B0E;" d="M210.715,336.86c8.15,0.905,20.315,1.48,33.913,1.48c13.599,0,25.763-0.575,33.913-1.48
				c-8.151-2.261-20.315-3.698-33.913-3.698C231.03,333.162,218.866,334.599,210.715,336.86z"/>
			<path style="fill:#AB1B0E;" d="M201.05,345.642c4.04,4.788,22.012,8.399,43.578,8.399c21.567,0,39.539-3.611,43.578-8.399H201.05
				z"/>
			<path style="fill:#202739;" d="M251.153,405.983h-13.05V299.194c0-3.604,2.921-6.525,6.525-6.525l0,0
				c3.604,0,6.525,2.921,6.525,6.525V405.983z"/>
			<path style="fill:#7C230E;" d="M226.592,404.947h-17.38c0,0-18.495,1.749-18.495,13.993h35.875V404.947z"/>
			<g>
				<g>
					<path style="fill:#202739;" d="M244.142,363.482c-0.181,0.016-18.301,1.836-38.137-5.135
						c-14.324-5.035-12.511-40.206-10.176-56.897c5.623-0.27,9.931-1.765,9.931-3.576c0-2.001-5.258-3.623-11.744-3.623
						c-6.486,0-11.744,1.622-11.744,3.623c0,1.658,3.613,3.052,8.54,3.483c-1.747,13.171-5.682,54.949,13.536,61.704
						c13.65,4.798,26.299,5.667,33.674,5.667c3.944,0,6.381-0.249,6.653-0.278L244.142,363.482z"/>
				</g>
				<g>
					<path style="fill:#202739;" d="M247.114,363.482c0.181,0.016,18.301,1.836,38.137-5.135
						c14.324-5.035,12.511-40.206,10.175-56.897c-5.623-0.27-9.931-1.765-9.931-3.576c0-2.001,5.258-3.623,11.744-3.623
						s11.744,1.622,11.744,3.623c0,1.658-3.613,3.052-8.54,3.483c1.747,13.171,5.682,54.949-13.536,61.704
						c-13.65,4.798-26.299,5.667-33.674,5.667c-3.944,0-6.381-0.249-6.653-0.278L247.114,363.482z"/>
				</g>
			</g>
			<circle style="fill:#202739;" cx="244.675" cy="413.648" r="7.666"/>
			<path style="fill:#202739;" d="M252.34,295.409c0,4.233-3.432,7.665-7.666,7.665c-4.234,0-7.666-3.432-7.666-7.665
				c0-4.234,3.432-7.666,7.666-7.666C248.908,287.744,252.34,291.176,252.34,295.409z"/>
			<g>
				<circle style="fill:#202739;" cx="219.351" cy="413.648" r="7.666"/>
				<circle style="fill:#202739;" cx="269.906" cy="413.648" r="7.666"/>
			</g>
			<rect x="221.436" y="404.947" style="fill:#202739;" width="46.477" height="5.372"/>
			<g>
				<path id="XMLID_556_" style="fill:#9594A0;" d="M346.706,295.658h-17.164v-4.453c0-2.462,1.996-4.458,4.458-4.458l0,0
					c2.462,0,8.505,1.996,8.505,4.458L346.706,295.658z"/>
				<path id="XMLID_553_" style="fill:#C5C4D7;" d="M382.626,377.212h-42.755v-80.269c0-4.363-2.517-8.334-6.461-10.196h0
					l36.908-0.21c6.787-0.039,12.309,5.452,12.309,12.239V377.212z"/>
				<g id="XMLID_518_">
					<g id="XMLID_551_">
						<path id="XMLID_552_" style="fill:#888888;" d="M374.254,292.684h-29.223c-0.143,0-0.258-0.116-0.258-0.258
							c0-0.143,0.115-0.258,0.258-0.258h29.223c0.143,0,0.258,0.115,0.258,0.258C374.512,292.569,374.396,292.684,374.254,292.684z"
							/>
					</g>
					<g id="XMLID_549_">
						<path id="XMLID_550_" style="fill:#888888;" d="M377.52,295.951h-29.223c-0.143,0-0.258-0.115-0.258-0.258
							c0-0.143,0.115-0.258,0.258-0.258h29.223c0.143,0,0.258,0.115,0.258,0.258C377.779,295.836,377.663,295.951,377.52,295.951z"
							/>
					</g>
					<g id="XMLID_547_">
						<path id="XMLID_548_" style="fill:#888888;" d="M377.408,299.639h-29.223c-0.143,0-0.258-0.115-0.258-0.258
							c0-0.143,0.115-0.258,0.258-0.258h29.223c0.143,0,0.258,0.115,0.258,0.258C377.666,299.523,377.55,299.639,377.408,299.639z"
							/>
					</g>
					<g id="XMLID_545_">
						<path id="XMLID_546_" style="fill:#888888;" d="M377.408,303.699h-29.223c-0.143,0-0.258-0.115-0.258-0.258
							s0.115-0.258,0.258-0.258h29.223c0.143,0,0.258,0.115,0.258,0.258S377.55,303.699,377.408,303.699z"/>
					</g>
					<g id="XMLID_543_">
						<path id="XMLID_544_" style="fill:#888888;" d="M377.408,308.424h-29.223c-0.143,0-0.258-0.115-0.258-0.258
							c0-0.143,0.115-0.258,0.258-0.258h29.223c0.143,0,0.258,0.115,0.258,0.258C377.666,308.309,377.55,308.424,377.408,308.424z"
							/>
					</g>
					<g id="XMLID_541_">
						<path id="XMLID_542_" style="fill:#888888;" d="M377.408,313.148h-29.223c-0.143,0-0.258-0.115-0.258-0.258
							c0-0.142,0.115-0.258,0.258-0.258h29.223c0.143,0,0.258,0.115,0.258,0.258C377.666,313.033,377.55,313.148,377.408,313.148z"
							/>
					</g>
					<g id="XMLID_533_">
						<path id="XMLID_540_" style="fill:#888888;" d="M377.408,317.873h-29.223c-0.143,0-0.258-0.116-0.258-0.258
							c0-0.143,0.115-0.258,0.258-0.258h29.223c0.143,0,0.258,0.115,0.258,0.258C377.666,317.757,377.55,317.873,377.408,317.873z"
							/>
					</g>
					<g id="XMLID_531_">
						<path id="XMLID_532_" style="fill:#888888;" d="M377.408,322.597h-29.223c-0.143,0-0.258-0.115-0.258-0.258
							c0-0.143,0.115-0.258,0.258-0.258h29.223c0.143,0,0.258,0.115,0.258,0.258C377.666,322.482,377.55,322.597,377.408,322.597z"
							/>
					</g>
					<g id="XMLID_529_">
						<path id="XMLID_530_" style="fill:#888888;" d="M377.408,327.321h-29.223c-0.143,0-0.258-0.115-0.258-0.258
							c0-0.142,0.115-0.258,0.258-0.258h29.223c0.143,0,0.258,0.116,0.258,0.258C377.666,327.206,377.55,327.321,377.408,327.321z"
							/>
					</g>
					<g id="XMLID_527_">
						<path id="XMLID_528_" style="fill:#888888;" d="M377.408,332.046h-29.223c-0.143,0-0.258-0.116-0.258-0.258
							c0-0.142,0.115-0.258,0.258-0.258h29.223c0.143,0,0.258,0.115,0.258,0.258C377.666,331.931,377.55,332.046,377.408,332.046z"
							/>
					</g>
					<g id="XMLID_525_">
						<path id="XMLID_526_" style="fill:#888888;" d="M377.408,336.771h-29.223c-0.143,0-0.258-0.115-0.258-0.258
							c0-0.143,0.115-0.258,0.258-0.258h29.223c0.143,0,0.258,0.115,0.258,0.258C377.666,336.655,377.55,336.771,377.408,336.771z"
							/>
					</g>
					<g id="XMLID_523_">
						<path id="XMLID_524_" style="fill:#888888;" d="M377.408,341.495h-29.223c-0.143,0-0.258-0.115-0.258-0.258
							c0-0.143,0.115-0.258,0.258-0.258h29.223c0.143,0,0.258,0.116,0.258,0.258C377.666,341.379,377.55,341.495,377.408,341.495z"
							/>
					</g>
					<g id="XMLID_581_">
						<path id="XMLID_582_" style="fill:#888888;" d="M377.408,341.495h-29.223c-0.143,0-0.258-0.115-0.258-0.258
							c0-0.143,0.115-0.258,0.258-0.258h29.223c0.143,0,0.258,0.116,0.258,0.258C377.666,341.379,377.55,341.495,377.408,341.495z"
							/>
					</g>
					<g id="XMLID_579_">
						<path id="XMLID_580_" style="fill:#888888;" d="M377.408,346.219h-29.223c-0.143,0-0.258-0.115-0.258-0.258
							c0-0.143,0.115-0.258,0.258-0.258h29.223c0.143,0,0.258,0.115,0.258,0.258C377.666,346.104,377.55,346.219,377.408,346.219z"
							/>
					</g>
					<g id="XMLID_577_">
						<path id="XMLID_578_" style="fill:#888888;" d="M377.408,350.944h-29.223c-0.143,0-0.258-0.115-0.258-0.258
							c0-0.143,0.115-0.258,0.258-0.258h29.223c0.143,0,0.258,0.115,0.258,0.258C377.666,350.829,377.55,350.944,377.408,350.944z"
							/>
					</g>
					<g id="XMLID_575_">
						<path id="XMLID_576_" style="fill:#888888;" d="M377.408,355.668h-29.223c-0.143,0-0.258-0.115-0.258-0.258
							s0.115-0.258,0.258-0.258h29.223c0.143,0,0.258,0.115,0.258,0.258S377.55,355.668,377.408,355.668z"/>
					</g>
					<g id="XMLID_560_">
						<path id="XMLID_562_" style="fill:#888888;" d="M377.408,360.393h-29.223c-0.143,0-0.258-0.116-0.258-0.258
							c0-0.143,0.115-0.258,0.258-0.258h29.223c0.143,0,0.258,0.115,0.258,0.258C377.666,360.277,377.55,360.393,377.408,360.393z"
							/>
					</g>
					<g id="XMLID_558_">
						<path id="XMLID_559_" style="fill:#888888;" d="M377.408,365.117h-29.223c-0.143,0-0.258-0.115-0.258-0.258
							c0-0.143,0.115-0.258,0.258-0.258h29.223c0.143,0,0.258,0.115,0.258,0.258C377.666,365.002,377.55,365.117,377.408,365.117z"
							/>
					</g>
					<g id="XMLID_554_">
						<path id="XMLID_557_" style="fill:#888888;" d="M377.408,369.841h-29.223c-0.143,0-0.258-0.115-0.258-0.258
							s0.115-0.258,0.258-0.258h29.223c0.143,0,0.258,0.116,0.258,0.258S377.55,369.841,377.408,369.841z"/>
					</g>
				</g>
			</g>
		</g>
	</g>
</g>
<g id="DESIGNED_BY_FREEPIK">
	<g id="XMLID_405_">
		<g>
			<g id="XMLID_788_">
				<path id="XMLID_813_" style="fill:#41437C;" d="M177.117,487.114v-0.17c-0.228,0.262-0.452,0.474-0.673,0.636
					c-0.221,0.164-0.462,0.289-0.72,0.373c-0.259,0.087-0.541,0.127-0.847,0.127c-0.406,0-0.781-0.084-1.128-0.256
					c-0.345-0.171-0.645-0.418-0.896-0.736c-0.253-0.318-0.444-0.691-0.575-1.124c-0.13-0.43-0.195-0.897-0.195-1.398
					c0-1.058,0.259-1.885,0.776-2.477c0.518-0.591,1.198-0.887,2.043-0.887c0.487,0,0.9,0.084,1.234,0.251
					c0.337,0.166,0.662,0.426,0.981,0.772v-2.502c0-0.348,0.069-0.609,0.209-0.787c0.138-0.178,0.336-0.267,0.592-0.267
					c0.257,0,0.454,0.082,0.593,0.245c0.138,0.164,0.208,0.404,0.208,0.723v7.476c0,0.321-0.075,0.564-0.224,0.725
					c-0.149,0.161-0.341,0.241-0.578,0.241c-0.232,0-0.424-0.082-0.574-0.25C177.193,487.663,177.117,487.422,177.117,487.114z
					 M173.784,484.623c0,0.461,0.072,0.851,0.215,1.173c0.142,0.323,0.338,0.566,0.586,0.729c0.249,0.163,0.52,0.247,0.813,0.247
					c0.298,0,0.57-0.078,0.817-0.234c0.246-0.154,0.444-0.393,0.59-0.713c0.147-0.32,0.221-0.723,0.221-1.202
					c0-0.451-0.074-0.839-0.221-1.166c-0.146-0.322-0.345-0.571-0.596-0.743c-0.25-0.171-0.524-0.257-0.822-0.257
					c-0.309,0-0.587,0.088-0.832,0.262c-0.244,0.178-0.434,0.429-0.567,0.759C173.851,483.807,173.784,484.188,173.784,484.623z"/>
				<path id="XMLID_810_" style="fill:#41437C;" d="M184.591,485.052h-3.315c0.004,0.384,0.081,0.724,0.234,1.018
					c0.15,0.294,0.352,0.516,0.601,0.664c0.251,0.149,0.527,0.223,0.829,0.223c0.203,0,0.387-0.022,0.555-0.069
					c0.168-0.05,0.33-0.123,0.488-0.225c0.158-0.102,0.302-0.21,0.435-0.327c0.132-0.115,0.304-0.274,0.515-0.472
					c0.086-0.073,0.211-0.111,0.373-0.111c0.174,0,0.314,0.047,0.421,0.143c0.107,0.096,0.162,0.229,0.162,0.403
					c0,0.153-0.06,0.331-0.18,0.536c-0.121,0.205-0.302,0.401-0.544,0.591c-0.243,0.188-0.546,0.344-0.913,0.468
					c-0.365,0.125-0.787,0.185-1.263,0.185c-1.088,0-1.935-0.31-2.539-0.93c-0.605-0.621-0.907-1.463-0.907-2.527
					c0-0.501,0.075-0.965,0.224-1.394c0.149-0.428,0.366-0.794,0.651-1.102c0.286-0.306,0.638-0.541,1.056-0.705
					c0.418-0.163,0.881-0.245,1.391-0.245c0.661,0,1.23,0.14,1.704,0.419c0.474,0.28,0.829,0.641,1.065,1.083
					c0.236,0.443,0.354,0.895,0.354,1.354c0,0.428-0.123,0.702-0.366,0.829C185.379,484.988,185.034,485.052,184.591,485.052z
					 M181.276,484.09h3.074c-0.042-0.58-0.199-1.015-0.469-1.301c-0.272-0.289-0.629-0.432-1.07-0.432
					c-0.423,0-0.77,0.145-1.04,0.436C181.499,483.087,181.334,483.517,181.276,484.09z"/>
				<path id="XMLID_808_" style="fill:#41437C;" d="M192.313,485.864c0,0.468-0.113,0.868-0.341,1.202
					c-0.227,0.333-0.563,0.587-1.009,0.758c-0.444,0.172-0.985,0.256-1.623,0.256c-0.608,0-1.13-0.093-1.564-0.278
					c-0.435-0.186-0.756-0.419-0.963-0.697c-0.207-0.281-0.31-0.561-0.31-0.843c0-0.188,0.065-0.345,0.199-0.479
					c0.132-0.132,0.299-0.196,0.503-0.196c0.177,0,0.314,0.042,0.409,0.129c0.095,0.088,0.186,0.209,0.273,0.366
					c0.174,0.304,0.382,0.526,0.625,0.678c0.242,0.148,0.571,0.223,0.99,0.223c0.339,0,0.618-0.076,0.835-0.226
					c0.216-0.153,0.325-0.325,0.325-0.52c0-0.298-0.112-0.514-0.338-0.65c-0.226-0.138-0.597-0.269-1.115-0.393
					c-0.584-0.144-1.059-0.297-1.425-0.457c-0.367-0.157-0.659-0.369-0.878-0.629c-0.219-0.261-0.329-0.583-0.329-0.963
					c0-0.338,0.101-0.659,0.303-0.962c0.204-0.302,0.502-0.543,0.899-0.724c0.394-0.18,0.871-0.271,1.43-0.271
					c0.439,0,0.833,0.047,1.182,0.139c0.351,0.089,0.643,0.213,0.876,0.366c0.234,0.152,0.412,0.321,0.533,0.508
					c0.122,0.187,0.183,0.367,0.183,0.546c0,0.194-0.065,0.354-0.195,0.48c-0.13,0.122-0.315,0.185-0.556,0.185
					c-0.174,0-0.322-0.05-0.443-0.149c-0.122-0.1-0.262-0.249-0.419-0.446c-0.128-0.165-0.279-0.299-0.453-0.398
					c-0.174-0.099-0.41-0.147-0.708-0.147c-0.306,0-0.561,0.064-0.764,0.194c-0.202,0.131-0.304,0.292-0.304,0.486
					c0,0.179,0.075,0.324,0.223,0.439c0.15,0.114,0.351,0.209,0.604,0.283c0.252,0.075,0.599,0.165,1.042,0.272
					c0.525,0.128,0.954,0.283,1.288,0.459c0.333,0.178,0.585,0.388,0.758,0.632C192.227,485.279,192.313,485.554,192.313,485.864z"
					/>
				<path id="XMLID_805_" style="fill:#41437C;" d="M194.045,480.403c-0.237,0-0.438-0.074-0.605-0.219
					c-0.168-0.144-0.252-0.349-0.252-0.616c0-0.238,0.085-0.436,0.257-0.591c0.172-0.155,0.373-0.233,0.6-0.233
					c0.22,0,0.414,0.07,0.584,0.212c0.168,0.141,0.254,0.345,0.254,0.612c0,0.264-0.083,0.467-0.249,0.613
					C194.469,480.328,194.273,480.403,194.045,480.403z M194.883,482.152v4.898c0,0.339-0.081,0.596-0.242,0.77
					c-0.161,0.174-0.366,0.26-0.615,0.26c-0.248,0-0.449-0.087-0.605-0.267c-0.155-0.177-0.232-0.433-0.232-0.763v-4.849
					c0-0.335,0.077-0.587,0.232-0.758c0.156-0.169,0.357-0.255,0.605-0.255c0.25,0,0.454,0.086,0.615,0.255
					C194.802,481.615,194.883,481.85,194.883,482.152z"/>
				<path id="XMLID_802_" style="fill:#41437C;" d="M202.308,482.43v4.925c0,0.561-0.061,1.047-0.181,1.453
					c-0.119,0.403-0.312,0.74-0.577,1.005c-0.265,0.264-0.612,0.462-1.04,0.59c-0.427,0.129-0.961,0.192-1.599,0.192
					c-0.583,0-1.104-0.083-1.564-0.246c-0.459-0.163-0.813-0.375-1.062-0.632c-0.247-0.26-0.372-0.524-0.372-0.798
					c0-0.207,0.07-0.377,0.211-0.506c0.14-0.132,0.311-0.197,0.509-0.197c0.249,0,0.466,0.111,0.652,0.33
					c0.091,0.111,0.185,0.226,0.282,0.339c0.098,0.114,0.206,0.21,0.323,0.291c0.119,0.081,0.261,0.142,0.426,0.181
					c0.166,0.039,0.357,0.058,0.571,0.058c0.438,0,0.779-0.061,1.021-0.183c0.243-0.121,0.413-0.292,0.51-0.513
					c0.097-0.218,0.154-0.452,0.17-0.704c0.017-0.249,0.029-0.653,0.037-1.207c-0.261,0.365-0.562,0.642-0.903,0.832
					c-0.341,0.189-0.748,0.285-1.22,0.285c-0.567,0-1.063-0.146-1.487-0.434c-0.424-0.29-0.75-0.694-0.977-1.217
					c-0.229-0.521-0.342-1.122-0.342-1.806c0-0.51,0.069-0.97,0.207-1.379c0.14-0.41,0.336-0.755,0.593-1.036
					c0.256-0.282,0.552-0.493,0.887-0.637c0.335-0.142,0.703-0.214,1.105-0.214c0.48,0,0.896,0.093,1.249,0.275
					c0.352,0.185,0.679,0.474,0.981,0.867v-0.23c0-0.293,0.071-0.521,0.217-0.684c0.145-0.159,0.332-0.242,0.559-0.242
					c0.326,0,0.544,0.107,0.651,0.32C202.253,481.722,202.308,482.03,202.308,482.43z M197.396,484.58
					c0,0.688,0.149,1.207,0.45,1.558c0.3,0.353,0.688,0.528,1.165,0.528c0.281,0,0.547-0.075,0.797-0.227
					c0.251-0.151,0.455-0.38,0.612-0.683c0.156-0.305,0.236-0.673,0.236-1.107c0-0.692-0.153-1.23-0.457-1.615
					c-0.303-0.385-0.704-0.577-1.201-0.577c-0.484,0-0.872,0.185-1.164,0.554C197.542,483.378,197.396,483.902,197.396,484.58z"/>
				<path id="XMLID_800_" style="fill:#41437C;" d="M205,482.128v0.205c0.298-0.393,0.624-0.683,0.978-0.866
					c0.354-0.184,0.76-0.277,1.219-0.277c0.448,0,0.847,0.099,1.199,0.292c0.351,0.195,0.615,0.471,0.788,0.825
					c0.112,0.208,0.184,0.433,0.217,0.671c0.032,0.241,0.05,0.547,0.05,0.92v3.153c0,0.339-0.078,0.596-0.233,0.77
					c-0.156,0.174-0.357,0.26-0.605,0.26c-0.253,0-0.458-0.087-0.615-0.267c-0.158-0.177-0.235-0.433-0.235-0.763v-2.826
					c0-0.557-0.079-0.984-0.233-1.281c-0.155-0.295-0.465-0.443-0.929-0.443c-0.302,0-0.577,0.09-0.825,0.27
					c-0.248,0.18-0.431,0.427-0.546,0.742c-0.083,0.251-0.124,0.723-0.124,1.415v2.123c0,0.343-0.081,0.603-0.239,0.773
					c-0.16,0.172-0.366,0.256-0.618,0.256c-0.245,0-0.445-0.087-0.602-0.267c-0.157-0.177-0.236-0.433-0.236-0.763v-4.898
					c0-0.322,0.07-0.564,0.211-0.724c0.141-0.159,0.333-0.239,0.577-0.239c0.149,0,0.284,0.036,0.404,0.107
					c0.12,0.07,0.216,0.175,0.288,0.315C204.964,481.753,205,481.924,205,482.128z"/>
				<path id="XMLID_797_" style="fill:#41437C;" d="M215.311,485.052h-3.314c0.004,0.384,0.081,0.724,0.232,1.018
					c0.152,0.294,0.352,0.516,0.603,0.664c0.249,0.149,0.526,0.223,0.828,0.223c0.204,0,0.389-0.022,0.556-0.069
					c0.168-0.05,0.33-0.123,0.487-0.225c0.157-0.102,0.301-0.21,0.436-0.327c0.131-0.115,0.303-0.274,0.514-0.472
					c0.087-0.073,0.211-0.111,0.373-0.111c0.174,0,0.315,0.047,0.422,0.143c0.107,0.096,0.161,0.229,0.161,0.403
					c0,0.153-0.06,0.331-0.18,0.536c-0.12,0.205-0.301,0.401-0.543,0.591c-0.243,0.188-0.546,0.344-0.912,0.468
					c-0.367,0.125-0.788,0.185-1.264,0.185c-1.088,0-1.935-0.31-2.539-0.93c-0.604-0.621-0.907-1.463-0.907-2.527
					c0-0.501,0.075-0.965,0.224-1.394c0.149-0.428,0.366-0.794,0.652-1.102c0.285-0.306,0.637-0.541,1.055-0.705
					c0.418-0.163,0.882-0.245,1.391-0.245c0.663,0,1.23,0.14,1.703,0.419c0.474,0.28,0.83,0.641,1.066,1.083
					c0.234,0.443,0.354,0.895,0.354,1.354c0,0.428-0.122,0.702-0.366,0.829C216.098,484.988,215.754,485.052,215.311,485.052z
					 M211.997,484.09h3.073c-0.042-0.58-0.198-1.015-0.469-1.301c-0.271-0.289-0.627-0.432-1.071-0.432
					c-0.422,0-0.769,0.145-1.04,0.436C212.218,483.087,212.055,483.517,211.997,484.09z"/>
				<path id="XMLID_794_" style="fill:#41437C;" d="M222.219,487.114v-0.17c-0.227,0.262-0.452,0.474-0.673,0.636
					c-0.221,0.164-0.461,0.289-0.719,0.373c-0.259,0.087-0.541,0.127-0.847,0.127c-0.407,0-0.783-0.084-1.127-0.256
					c-0.346-0.171-0.645-0.418-0.897-0.736c-0.253-0.318-0.444-0.691-0.574-1.124c-0.13-0.43-0.195-0.897-0.195-1.398
					c0-1.058,0.258-1.885,0.776-2.477c0.517-0.591,1.198-0.887,2.042-0.887c0.489,0,0.901,0.084,1.236,0.251
					c0.335,0.166,0.662,0.426,0.98,0.772v-2.502c0-0.348,0.069-0.609,0.208-0.787c0.139-0.178,0.337-0.267,0.593-0.267
					c0.256,0,0.454,0.082,0.593,0.245c0.138,0.164,0.207,0.404,0.207,0.723v7.476c0,0.321-0.073,0.564-0.223,0.725
					c-0.149,0.161-0.341,0.241-0.578,0.241c-0.231,0-0.423-0.082-0.574-0.25C222.295,487.663,222.219,487.422,222.219,487.114z
					 M218.886,484.623c0,0.461,0.07,0.851,0.214,1.173c0.143,0.323,0.339,0.566,0.587,0.729c0.248,0.163,0.519,0.247,0.813,0.247
					c0.298,0,0.57-0.078,0.816-0.234c0.247-0.154,0.442-0.393,0.589-0.713c0.147-0.32,0.221-0.723,0.221-1.202
					c0-0.451-0.073-0.839-0.221-1.166c-0.147-0.322-0.345-0.571-0.595-0.743c-0.251-0.171-0.525-0.257-0.823-0.257
					c-0.31,0-0.587,0.088-0.831,0.262c-0.244,0.178-0.434,0.429-0.568,0.759C218.953,483.807,218.886,484.188,218.886,484.623z"/>
				<path id="XMLID_791_" style="fill:#41437C;" d="M229.147,479.638v2.588c0.318-0.332,0.643-0.585,0.975-0.76
					c0.33-0.178,0.741-0.264,1.229-0.264c0.563,0,1.056,0.133,1.48,0.4c0.423,0.267,0.753,0.654,0.987,1.16
					c0.234,0.507,0.351,1.109,0.351,1.803c0,0.516-0.065,0.985-0.195,1.414c-0.131,0.428-0.32,0.799-0.568,1.113
					c-0.248,0.314-0.55,0.56-0.903,0.73c-0.354,0.172-0.743,0.256-1.17,0.256c-0.261,0-0.507-0.031-0.736-0.093
					c-0.229-0.061-0.426-0.142-0.587-0.245c-0.161-0.101-0.298-0.204-0.412-0.313c-0.114-0.107-0.265-0.268-0.45-0.485v0.17
					c0,0.316-0.078,0.557-0.23,0.723c-0.152,0.163-0.347,0.243-0.584,0.243c-0.24,0-0.431-0.08-0.574-0.243
					c-0.143-0.166-0.215-0.406-0.215-0.723v-7.401c0-0.344,0.07-0.604,0.208-0.779c0.14-0.177,0.333-0.263,0.581-0.263
					c0.261,0,0.462,0.082,0.603,0.25C229.076,479.088,229.147,479.326,229.147,479.638z M229.227,484.673
					c0,0.674,0.154,1.191,0.462,1.554c0.308,0.363,0.712,0.545,1.213,0.545c0.426,0,0.794-0.186,1.102-0.557
					c0.308-0.371,0.462-0.9,0.462-1.593c0-0.446-0.063-0.832-0.192-1.153c-0.128-0.324-0.31-0.573-0.546-0.751
					c-0.236-0.174-0.512-0.262-0.826-0.262c-0.323,0-0.61,0.088-0.863,0.262c-0.252,0.178-0.451,0.432-0.596,0.764
					C229.3,483.817,229.227,484.212,229.227,484.673z"/>
				<path id="XMLID_789_" style="fill:#41437C;" d="M236.366,488.293l0.155-0.379l-2.086-5.253
					c-0.127-0.301-0.192-0.521-0.192-0.657c0-0.145,0.038-0.28,0.113-0.404c0.074-0.125,0.175-0.224,0.306-0.298
					c0.131-0.074,0.267-0.112,0.406-0.112c0.245,0,0.428,0.078,0.553,0.233c0.124,0.156,0.234,0.377,0.329,0.667l1.435,4.172
					l1.359-3.88c0.107-0.315,0.205-0.56,0.292-0.739c0.087-0.177,0.178-0.298,0.276-0.358c0.097-0.063,0.235-0.095,0.413-0.095
					c0.129,0,0.252,0.036,0.37,0.104c0.118,0.068,0.209,0.159,0.273,0.275c0.063,0.115,0.096,0.237,0.096,0.366
					c-0.017,0.078-0.044,0.189-0.081,0.336c-0.038,0.144-0.083,0.293-0.136,0.44l-2.21,5.785c-0.192,0.51-0.377,0.908-0.559,1.198
					c-0.183,0.29-0.423,0.514-0.724,0.668c-0.3,0.155-0.705,0.233-1.214,0.233c-0.496,0-0.869-0.054-1.116-0.16
					c-0.249-0.109-0.374-0.306-0.374-0.591c0-0.194,0.058-0.345,0.177-0.451c0.118-0.104,0.294-0.16,0.525-0.16
					c0.091,0,0.18,0.015,0.268,0.039c0.107,0.025,0.2,0.038,0.279,0.038c0.194,0,0.348-0.029,0.46-0.088
					c0.111-0.058,0.211-0.156,0.301-0.301C236.148,488.779,236.25,488.569,236.366,488.293z"/>
			</g>
			<g id="XMLID_766_">
				<path id="XMLID_787_" style="fill:#41437C;" d="M260.918,481.336h0.404v-0.508c0-0.534,0.064-0.954,0.199-1.267
					c0.133-0.313,0.363-0.54,0.686-0.684c0.32-0.141,0.759-0.214,1.316-0.214c0.993,0,1.486,0.24,1.486,0.727
					c0,0.157-0.052,0.292-0.157,0.403c-0.1,0.111-0.224,0.167-0.365,0.167c-0.064,0-0.181-0.012-0.344-0.038
					c-0.155-0.021-0.297-0.037-0.407-0.037c-0.306,0-0.501,0.093-0.592,0.271c-0.082,0.181-0.127,0.437-0.127,0.774v0.403h0.413
					c0.648,0,0.969,0.193,0.969,0.586c0,0.272-0.085,0.45-0.258,0.525c-0.171,0.074-0.408,0.112-0.711,0.112h-0.413v4.49
					c0,0.333-0.08,0.589-0.243,0.763c-0.157,0.18-0.36,0.266-0.615,0.266c-0.24,0-0.438-0.086-0.6-0.266
					c-0.159-0.174-0.237-0.43-0.237-0.763v-4.49h-0.467c-0.254,0-0.446-0.056-0.584-0.172c-0.138-0.111-0.206-0.261-0.206-0.442
					C260.065,481.538,260.35,481.336,260.918,481.336"/>
				<path id="XMLID_786_" style="fill:#41437C;" d="M266.466,485.633v1.417c0,0.342-0.086,0.602-0.245,0.772
					c-0.16,0.174-0.365,0.257-0.611,0.257c-0.251,0-0.45-0.085-0.607-0.261c-0.154-0.173-0.235-0.43-0.235-0.768v-4.721
					c0-0.761,0.273-1.143,0.823-1.143c0.284,0,0.486,0.089,0.611,0.268c0.125,0.179,0.192,0.44,0.207,0.789
					c0.2-0.349,0.408-0.61,0.62-0.789c0.217-0.179,0.498-0.268,0.855-0.268c0.357,0,0.701,0.089,1.036,0.268
					c0.337,0.179,0.505,0.416,0.505,0.708c0,0.207-0.072,0.379-0.214,0.512c-0.143,0.136-0.297,0.203-0.461,0.203
					c-0.066,0-0.217-0.041-0.453-0.117c-0.239-0.074-0.45-0.113-0.63-0.113c-0.248,0-0.451,0.067-0.608,0.195
					c-0.158,0.134-0.281,0.324-0.368,0.579c-0.085,0.259-0.145,0.566-0.179,0.917C266.48,484.692,266.466,485.125,266.466,485.633"
					/>
				<path id="XMLID_783_" style="fill:#41437C;" d="M274.257,485.05h-3.315c0.005,0.384,0.08,0.726,0.231,1.019
					c0.153,0.292,0.353,0.514,0.604,0.665c0.252,0.148,0.525,0.222,0.83,0.222c0.203,0,0.388-0.021,0.555-0.073
					c0.167-0.046,0.33-0.121,0.487-0.223c0.158-0.101,0.302-0.207,0.434-0.327c0.134-0.113,0.306-0.271,0.517-0.47
					c0.089-0.072,0.213-0.114,0.372-0.114c0.175,0,0.313,0.049,0.424,0.146c0.109,0.097,0.159,0.229,0.159,0.403
					c0,0.155-0.059,0.333-0.174,0.536c-0.124,0.207-0.305,0.402-0.546,0.593c-0.246,0.185-0.549,0.344-0.915,0.467
					c-0.364,0.124-0.787,0.186-1.263,0.186c-1.091,0-1.938-0.309-2.54-0.928c-0.603-0.623-0.908-1.467-0.908-2.529
					c0-0.502,0.076-0.966,0.227-1.395c0.146-0.432,0.364-0.797,0.653-1.104c0.283-0.308,0.634-0.541,1.052-0.706
					c0.417-0.163,0.882-0.244,1.392-0.244c0.66,0,1.23,0.141,1.703,0.423c0.475,0.276,0.834,0.638,1.065,1.082
					c0.237,0.444,0.354,0.893,0.354,1.355c0,0.423-0.124,0.699-0.367,0.826C275.043,484.987,274.7,485.05,274.257,485.05
					 M270.941,484.086h3.073c-0.041-0.578-0.196-1.012-0.468-1.298c-0.273-0.289-0.627-0.432-1.072-0.432
					c-0.422,0-0.768,0.143-1.039,0.436C271.163,483.086,270.998,483.515,270.941,484.086"/>
				<path id="XMLID_780_" style="fill:#41437C;" d="M281.308,485.05h-3.314c0.003,0.384,0.081,0.726,0.231,1.019
					c0.15,0.292,0.352,0.514,0.602,0.665c0.251,0.148,0.526,0.222,0.831,0.222c0.2,0,0.388-0.021,0.552-0.073
					c0.171-0.046,0.33-0.121,0.489-0.223c0.159-0.101,0.302-0.207,0.435-0.327c0.13-0.113,0.303-0.271,0.516-0.47
					c0.088-0.072,0.213-0.114,0.372-0.114c0.175,0,0.315,0.049,0.426,0.146c0.105,0.097,0.156,0.229,0.156,0.403
					c0,0.155-0.057,0.333-0.18,0.536c-0.116,0.207-0.297,0.402-0.542,0.593c-0.241,0.185-0.549,0.344-0.914,0.467
					c-0.361,0.124-0.788,0.186-1.262,0.186c-1.091,0-1.936-0.309-2.541-0.928c-0.604-0.623-0.908-1.467-0.908-2.529
					c0-0.502,0.076-0.966,0.229-1.395c0.146-0.432,0.363-0.797,0.65-1.104c0.283-0.308,0.635-0.541,1.055-0.706
					c0.418-0.163,0.882-0.244,1.392-0.244c0.659,0,1.227,0.141,1.708,0.423c0.47,0.276,0.827,0.638,1.059,1.082
					c0.236,0.444,0.357,0.893,0.357,1.355c0,0.423-0.125,0.699-0.368,0.826C282.092,484.987,281.749,485.05,281.308,485.05
					 M277.993,484.086h3.072c-0.042-0.578-0.2-1.012-0.468-1.298c-0.275-0.289-0.629-0.432-1.073-0.432
					c-0.422,0-0.768,0.143-1.042,0.436C278.213,483.086,278.048,483.515,277.993,484.086"/>
				<path id="XMLID_777_" style="fill:#41437C;" d="M285.02,482.14v0.204c0.318-0.395,0.65-0.683,0.997-0.866
					c0.34-0.186,0.731-0.279,1.165-0.279c0.52,0,1.003,0.136,1.442,0.404c0.44,0.27,0.783,0.662,1.038,1.18
					c0.257,0.521,0.384,1.131,0.384,1.839c0,0.52-0.074,1.002-0.22,1.438c-0.146,0.438-0.352,0.801-0.607,1.098
					c-0.256,0.294-0.56,0.523-0.907,0.685c-0.354,0.157-0.727,0.236-1.13,0.236c-0.482,0-0.892-0.096-1.219-0.291
					c-0.329-0.191-0.643-0.479-0.943-0.853v2.544c0,0.742-0.271,1.118-0.813,1.118c-0.321,0-0.528-0.097-0.634-0.289
					c-0.1-0.194-0.154-0.473-0.154-0.843v-7.317c0-0.322,0.07-0.561,0.21-0.723c0.141-0.157,0.334-0.238,0.578-0.238
					c0.24,0,0.435,0.081,0.586,0.245C284.946,481.596,285.02,481.831,285.02,482.14 M288.344,484.603
					c0-0.447-0.07-0.833-0.206-1.152c-0.136-0.323-0.326-0.567-0.565-0.737c-0.241-0.173-0.512-0.26-0.807-0.26
					c-0.466,0-0.861,0.188-1.182,0.553c-0.321,0.369-0.484,0.911-0.484,1.628c0,0.672,0.162,1.199,0.482,1.573
					c0.318,0.375,0.709,0.562,1.184,0.562c0.28,0,0.544-0.083,0.783-0.244c0.242-0.164,0.435-0.409,0.577-0.734
					C288.271,485.461,288.344,485.065,288.344,484.603"/>
				<path id="XMLID_774_" style="fill:#41437C;" d="M291.752,480.397c-0.236,0-0.438-0.073-0.604-0.218
					c-0.168-0.147-0.252-0.348-0.252-0.612c0-0.241,0.085-0.438,0.259-0.596c0.172-0.152,0.369-0.231,0.597-0.231
					c0.223,0,0.416,0.069,0.585,0.208c0.169,0.143,0.255,0.351,0.255,0.619c0,0.261-0.083,0.465-0.247,0.611
					C292.179,480.324,291.983,480.397,291.752,480.397 M292.592,482.147v4.905c0,0.336-0.08,0.593-0.241,0.766
					c-0.164,0.176-0.367,0.261-0.615,0.261c-0.249,0-0.448-0.086-0.606-0.266c-0.153-0.18-0.232-0.434-0.232-0.761v-4.855
					c0-0.333,0.079-0.586,0.232-0.754c0.158-0.174,0.357-0.257,0.606-0.257c0.248,0,0.451,0.083,0.615,0.257
					C292.512,481.611,292.592,481.849,292.592,482.147"/>
				<path id="XMLID_773_" style="fill:#41437C;" d="M298.056,487.306l-1.492-2.462l-0.921,0.869v1.35
					c0,0.325-0.087,0.576-0.259,0.75c-0.168,0.18-0.37,0.266-0.593,0.266c-0.261,0-0.467-0.085-0.614-0.261
					c-0.15-0.173-0.226-0.43-0.226-0.768v-7.231c0-0.376,0.075-0.661,0.217-0.858c0.146-0.199,0.355-0.296,0.623-0.296
					c0.262,0,0.465,0.09,0.621,0.27c0.151,0.176,0.23,0.439,0.23,0.786v4.112l1.905-2.001c0.237-0.247,0.415-0.419,0.541-0.509
					c0.123-0.092,0.274-0.137,0.45-0.137c0.214,0,0.389,0.068,0.534,0.202c0.138,0.134,0.208,0.305,0.208,0.506
					c0,0.248-0.231,0.581-0.688,0.994l-0.9,0.826l1.738,2.733c0.126,0.204,0.222,0.354,0.276,0.461
					c0.055,0.105,0.086,0.209,0.086,0.302c0,0.27-0.075,0.479-0.224,0.637c-0.146,0.156-0.343,0.231-0.578,0.231
					c-0.208,0-0.369-0.052-0.479-0.168C298.4,487.8,298.244,487.596,298.056,487.306"/>
				<path id="XMLID_772_" style="fill:#41437C;" d="M301.738,488.079c-0.255,0-0.475-0.081-0.663-0.249
					c-0.185-0.162-0.279-0.395-0.279-0.695c0-0.252,0.09-0.47,0.268-0.65c0.18-0.183,0.397-0.273,0.659-0.273
					c0.26,0,0.48,0.091,0.669,0.268c0.183,0.181,0.275,0.401,0.275,0.655c0,0.296-0.093,0.528-0.275,0.693
					C302.203,487.998,301.986,488.079,301.738,488.079"/>
				<path id="XMLID_771_" style="fill:#41437C;" d="M310.169,485.981c0,0.21-0.063,0.438-0.19,0.677
					c-0.125,0.242-0.319,0.469-0.577,0.687c-0.259,0.217-0.583,0.392-0.978,0.524c-0.393,0.132-0.837,0.2-1.327,0.2
					c-1.05,0-1.868-0.307-2.456-0.915c-0.585-0.611-0.879-1.431-0.879-2.458c0-0.697,0.133-1.311,0.403-1.846
					c0.266-0.532,0.657-0.946,1.164-1.239c0.51-0.292,1.122-0.438,1.827-0.438c0.439,0,0.842,0.065,1.21,0.193
					c0.366,0.127,0.675,0.295,0.933,0.497c0.252,0.204,0.447,0.42,0.58,0.648c0.135,0.23,0.2,0.444,0.2,0.644
					c0,0.201-0.073,0.375-0.223,0.516c-0.154,0.141-0.338,0.211-0.548,0.211c-0.144,0-0.261-0.037-0.354-0.108
					c-0.096-0.072-0.199-0.189-0.314-0.354c-0.207-0.312-0.421-0.55-0.649-0.706c-0.226-0.158-0.512-0.236-0.859-0.236
					c-0.498,0-0.904,0.195-1.212,0.587c-0.305,0.39-0.46,0.928-0.46,1.603c0,0.319,0.041,0.614,0.121,0.882
					c0.076,0.266,0.189,0.494,0.339,0.682c0.151,0.188,0.331,0.33,0.541,0.428c0.212,0.101,0.444,0.148,0.695,0.148
					c0.34,0,0.631-0.079,0.873-0.237c0.246-0.157,0.46-0.397,0.646-0.72c0.102-0.189,0.214-0.339,0.332-0.446
					c0.119-0.106,0.268-0.162,0.441-0.162c0.207,0,0.379,0.079,0.515,0.235C310.101,485.636,310.169,485.804,310.169,485.981"/>
				<path id="XMLID_768_" style="fill:#41437C;" d="M317.483,484.634c0,0.503-0.079,0.97-0.231,1.398
					c-0.162,0.426-0.388,0.792-0.688,1.097c-0.297,0.306-0.654,0.541-1.065,0.705c-0.418,0.163-0.882,0.245-1.397,0.245
					c-0.514,0-0.977-0.082-1.388-0.25c-0.407-0.162-0.764-0.4-1.063-0.707c-0.3-0.311-0.528-0.675-0.688-1.096
					c-0.148-0.42-0.228-0.885-0.228-1.393c0-0.515,0.081-0.984,0.234-1.409c0.156-0.43,0.383-0.795,0.678-1.095
					c0.294-0.301,0.649-0.534,1.065-0.699c0.421-0.164,0.883-0.245,1.388-0.245c0.514,0,0.978,0.081,1.397,0.249
					c0.417,0.164,0.773,0.402,1.073,0.707c0.3,0.31,0.525,0.672,0.681,1.092C317.405,483.66,317.483,484.122,317.483,484.634
					 M315.782,484.634c0-0.691-0.154-1.229-0.456-1.613c-0.304-0.389-0.711-0.581-1.225-0.581c-0.333,0-0.625,0.087-0.878,0.258
					c-0.252,0.172-0.445,0.425-0.582,0.761c-0.137,0.337-0.206,0.728-0.206,1.176c0,0.443,0.067,0.829,0.202,1.159
					c0.136,0.333,0.328,0.585,0.578,0.762c0.254,0.175,0.547,0.266,0.886,0.266c0.514,0,0.921-0.194,1.225-0.584
					C315.628,485.851,315.782,485.315,315.782,484.634"/>
				<path id="XMLID_767_" style="fill:#41437C;" d="M323.949,484.758v2.254c0,0.357-0.078,0.621-0.241,0.801
					c-0.164,0.18-0.373,0.267-0.639,0.267c-0.257,0-0.468-0.087-0.622-0.267c-0.162-0.18-0.244-0.443-0.244-0.801v-2.701
					c0-0.426-0.013-0.759-0.04-0.996c-0.03-0.232-0.11-0.429-0.237-0.576c-0.129-0.153-0.333-0.23-0.608-0.23
					c-0.556,0-0.92,0.19-1.096,0.575c-0.174,0.378-0.265,0.924-0.265,1.639v2.29c0,0.351-0.08,0.618-0.237,0.8
					c-0.163,0.177-0.371,0.268-0.63,0.268c-0.26,0-0.469-0.091-0.634-0.268c-0.163-0.182-0.244-0.449-0.244-0.8v-4.85
					c0-0.318,0.072-0.563,0.219-0.727c0.15-0.168,0.344-0.249,0.581-0.249c0.233,0,0.425,0.081,0.583,0.231
					c0.153,0.157,0.232,0.371,0.232,0.645v0.159c0.296-0.349,0.611-0.607,0.944-0.77c0.337-0.171,0.707-0.252,1.119-0.252
					c0.426,0,0.791,0.086,1.097,0.255c0.307,0.169,0.558,0.428,0.76,0.768c0.286-0.344,0.593-0.602,0.92-0.77
					c0.328-0.168,0.689-0.252,1.086-0.252c0.462,0,0.864,0.094,1.198,0.273c0.335,0.182,0.585,0.444,0.751,0.782
					c0.145,0.31,0.215,0.79,0.215,1.448v3.31c0,0.357-0.078,0.621-0.239,0.801c-0.16,0.18-0.375,0.267-0.64,0.267
					c-0.259,0-0.467-0.091-0.631-0.268c-0.164-0.182-0.246-0.449-0.246-0.8v-2.852c0-0.365-0.016-0.656-0.045-0.874
					c-0.03-0.221-0.115-0.405-0.25-0.554c-0.139-0.147-0.347-0.225-0.623-0.225c-0.223,0-0.435,0.069-0.637,0.201
					c-0.201,0.129-0.358,0.311-0.471,0.53C324.014,483.526,323.949,484.034,323.949,484.758"/>
			</g>
			<g id="XMLID_752_">
				<path id="XMLID_765_" style="fill:#41437C;" d="M245.056,484.223c-0.002-0.002-0.002-0.005-0.002-0.012
					C245.054,484.218,245.054,484.221,245.056,484.223z"/>
				<path id="XMLID_764_" style="fill:#41437C;" d="M245.141,484.766c0.001,0,0.001,0,0.003,0c-0.033-0.155-0.058-0.308-0.078-0.459
					C245.086,484.461,245.11,484.613,245.141,484.766z"/>
				<path id="XMLID_763_" style="fill:#41437C;" d="M245.702,486.339c-0.003-0.008-0.006-0.014-0.011-0.022
					C245.696,486.326,245.699,486.332,245.702,486.339z"/>
				<path id="XMLID_762_" style="fill:#41437C;" d="M245.649,486.235c-0.016-0.029-0.029-0.06-0.043-0.088
					C245.621,486.178,245.634,486.206,245.649,486.235z"/>
				<path id="XMLID_761_" style="fill:#41437C;" d="M245.299,485.372c0.083,0.262,0.183,0.516,0.299,0.757
					c-0.118-0.247-0.215-0.501-0.296-0.757H245.299z"/>
				<path id="XMLID_760_" style="fill:#41437C;" d="M251.616,477.73c0.328,0,0.57,0.026,0.847,0.073l0.079-0.5
					c0,0-0.766-0.233-1.772-0.152l-0.079-0.272c0.312-0.066,0.547-0.344,0.547-0.676c0-0.382-0.31-0.689-0.691-0.689
					c-0.381,0-0.691,0.308-0.691,0.689c0,0.332,0.234,0.609,0.546,0.676l0.088,0.302c-1.068,0.147-1.918,0.563-1.918,0.563
					l0.15,0.462c0.647-0.216,1.207-0.347,1.715-0.401C250.936,477.753,251.311,477.73,251.616,477.73z"/>
				<path id="XMLID_759_" style="fill:#41437C;" d="M245.69,480.25l0.003-0.004c0.026-0.032,0.05-0.064,0.074-0.094l-0.205-0.146
					l-0.318-0.234c-0.018,0.024-0.521,0.486-0.916,1.339c-0.017-0.026-0.037-0.053-0.06-0.077c-0.119-0.131-0.284-0.195-0.495-0.192
					c-0.002,0-0.006,0-0.01,0c-0.13,0-0.22-0.044-0.278-0.098c0.058-0.072,0.093-0.166,0.093-0.27c0-0.24-0.196-0.436-0.438-0.436
					c-0.241,0-0.438,0.195-0.438,0.436c0,0.242,0.196,0.438,0.438,0.438c0.038,0,0.074-0.005,0.109-0.014
					c0.107,0.121,0.278,0.225,0.527,0.219c0.129-0.001,0.223,0.032,0.286,0.102c0.073,0.079,0.097,0.194,0.105,0.28
					c-0.001,0.001-0.001,0.002-0.002,0.002c-0.284,0.778-0.204,1.746-0.204,1.746l0.691,0.027c0.014-0.353,0.064-0.969,0.243-1.458
					C245.241,480.868,245.673,480.277,245.69,480.25z"/>
				<path id="XMLID_758_" style="fill:#41437C;" d="M257.628,478.307c-0.24,0-0.436,0.194-0.436,0.437
					c0,0.037,0.007,0.074,0.017,0.109c-0.121,0.107-0.226,0.278-0.222,0.528c0.002,0.13-0.031,0.224-0.101,0.286
					c-0.055,0.048-0.125,0.076-0.193,0.092c-0.515-0.722-1.147-1.16-1.147-1.16l-0.496,0.531c0.375,0.341,0.758,0.768,1.129,1.301
					c0.258,0.368,0.523,0.844,0.742,1.316l0.671-0.316c0,0-0.306-0.756-0.736-1.434c0.074-0.025,0.15-0.066,0.217-0.125
					c0.131-0.118,0.195-0.286,0.19-0.496c0-0.135,0.045-0.228,0.098-0.289c0.074,0.058,0.169,0.095,0.268,0.095
					c0.244,0,0.439-0.197,0.439-0.438C258.066,478.501,257.872,478.307,257.628,478.307z"/>
				<path id="XMLID_757_" style="fill:#41437C;" d="M255.893,484.323c-0.921,0.447-2.436,1.04-4.432,1.319
					c-0.784,0.108-1.542,0.148-2.242,0.148c-0.909,0-1.712-0.067-2.329-0.146c-0.703-0.089-1.252-0.197-1.589-0.273
					c0.081,0.256,0.179,0.51,0.296,0.757c0.002,0.007,0.005,0.014,0.008,0.019c0.015,0.028,0.028,0.059,0.043,0.088
					c0.013,0.028,0.028,0.055,0.041,0.082c0.005,0.009,0.008,0.015,0.011,0.022c0.198,0.372,0.436,0.714,0.707,1.012
					c0.941,1.027,1.9,1.192,1.909,1.194l0.015,0.001l0.013,0.004c0.009,0.005,0.86,0.279,2.151,0.279
					c1.272,0,2.519-0.258,3.709-0.764c0.881-0.451,1.714-1.135,2.126-1.745c0.32-0.472,0.55-0.976,0.686-1.499
					c0.073-0.278,0.13-0.724,0.098-1.193C256.856,483.804,256.446,484.052,255.893,484.323z"/>
				<path id="XMLID_753_" style="fill:#41437C;" d="M245.986,480.469c-0.027,0.04-0.427,0.604-0.742,1.472
					c-0.236,0.65-0.226,1.598-0.226,1.609v0.002c0,0.222,0.012,0.441,0.037,0.659c0,0.007,0,0.01,0.002,0.012
					c0.002,0.029,0.007,0.055,0.009,0.084c0.02,0.151,0.045,0.304,0.078,0.459c0.457,0.116,3.188,0.754,6.24,0.328
					c1.914-0.268,3.365-0.832,4.247-1.26c0.734-0.355,1.204-0.677,1.387-0.811c-0.182-0.671-0.681-1.725-1.14-2.382
					c-1.311-1.873-2.724-2.353-3.448-2.473c-0.277-0.045-0.499-0.071-0.813-0.071c-0.292,0-0.655,0.023-1.139,0.074
					c-0.486,0.051-1.028,0.179-1.655,0.389c-0.881,0.295-1.678,0.759-2.305,1.34l-0.021,0.019
					C246.402,480.006,246.209,480.187,245.986,480.469z M254.005,480.034c0.628,0,1.14,0.511,1.14,1.14
					c0,0.628-0.512,1.14-1.14,1.14c-0.629,0-1.14-0.512-1.14-1.14C252.865,480.544,253.376,480.034,254.005,480.034z
					 M248.619,479.988c1.017,0,1.841,0.824,1.841,1.843c0,1.016-0.824,1.84-1.841,1.84s-1.841-0.824-1.841-1.84
					C246.777,480.812,247.602,479.988,248.619,479.988z"/>
			</g>
		</g>
	</g>
</g>
</svg>
