<?xml version="1.0" ?>
<!-- Uploaded to: SVG Repo, www.svgrepo.com, Generator: SVG Repo Mixer Tools -->
<svg fill="#000000" width="800px" height="800px" viewBox="0 0 32 32" xmlns="http://www.w3.org/2000/svg">
<title/>
<g id="os">
<path d="M5.5,30A3.35,3.35,0,0,1,3,29a3.35,3.35,0,0,1-1-2.48V5.5A3.35,3.35,0,0,1,3,3,3.35,3.35,0,0,1,5.5,2h21A3.35,3.35,0,0,1,29,3,3.35,3.35,0,0,1,30,5.5v21A3.52,3.52,0,0,1,26.49,30Zm17.44-8.69q2.79-.68,2.79-2.91A2.51,2.51,0,0,0,24.5,16,10.44,10.44,0,0,0,22,15a8.87,8.87,0,0,1-1.58-.57.74.74,0,0,1-.47-.63c0-.48.31-.83.93-1a2.48,2.48,0,0,1,.73-.16,2,2,0,0,1,2.07,1.26l2.07-.64A3.88,3.88,0,0,0,23.83,11a5,5,0,0,0-2.17-.5,4,4,0,0,0-.69,0,3.86,3.86,0,0,0-2.31,1.15,3.1,3.1,0,0,0-.83,2.12A2.39,2.39,0,0,0,19,16.09a8.91,8.91,0,0,0,2.37,1,8.41,8.41,0,0,1,1.69.63.8.8,0,0,1,.48.71c0,.5-.4.86-1.19,1.09a6,6,0,0,1-1.14.11c-1.5,0-2.51-.4-3-1.2a14.24,14.24,0,0,1-.95-2.14,23.45,23.45,0,0,0-1.12-2.58,7.16,7.16,0,0,0-1.79-2.25,4.43,4.43,0,0,0-2.94-.93,6.75,6.75,0,0,0-2.15.41,4.12,4.12,0,0,0-2.07,1.68,6.92,6.92,0,0,0-.88,3.9,5.68,5.68,0,0,0,1.2,3.28,4.4,4.4,0,0,0,3.84,1.69,6.88,6.88,0,0,0,2.14-.26,2.91,2.91,0,0,0,1-.54,1.43,1.43,0,0,0,.36-.45l-.94-1.87-.33.33a3.08,3.08,0,0,1-2.26.87,2.47,2.47,0,0,1-2.2-1.07,4,4,0,0,1-.67-2.34c0-2.34,1-3.52,2.93-3.52a2.59,2.59,0,0,1,2.3,1.2A14.42,14.42,0,0,1,15.19,17a15.82,15.82,0,0,0,1.08,2.49,4,4,0,0,0,2.1,1.56,8.88,8.88,0,0,0,2.86.46A6.9,6.9,0,0,0,22.94,21.31Z"/>
</g>
</svg>